<svg xmlns="http://www.w3.org/2000/svg" viewBox="0 0 24 24" fill="none">
  <rect width="24" height="24" rx="6" fill="#FFF7E5"/>
  <path d="M6 6.5V17.5C6 17.7761 6.22386 18 6.5 18H11.25C11.6642 18 12 17.6642 12 17.25V7.75C12 7.33579 11.6642 7 11.25 7H7C6.72386 7 6.5 6.77614 6.5 6.5C6.5 6.22386 6.27614 6 6 6C5.72386 6 5.5 6.22386 5.5 6.5Z" fill="#EC4899"/>
  <path d="M18 6.5V17.5C18 17.7761 17.7761 18 17.5 18H12.75C12.3358 18 12 17.6642 12 17.25V7.75C12 7.33579 12.3358 7 12.75 7H17C17.2761 7 17.5 6.77614 17.5 6.5C17.5 6.22386 17.7239 6 18 6C18.2761 6 18.5 6.22386 18.5 6.5Z" fill="#F472B6"/>
</svg>
